<svg width="113" height="38" viewBox="0 0 113 38" fill="none" xmlns="http://www.w3.org/2000/svg">
<path d="M14.4396 0H15.4328C18.8811 0.075763 22.2731 1.47738 24.7094 3.95862C23.8098 4.88671 22.8915 5.77693 22.0107 6.70503C20.6427 5.45494 18.9935 4.48896 17.1944 4.14802C14.5333 3.5798 11.666 4.0912 9.43588 5.6254C6.99962 7.23537 5.35045 9.96284 4.99439 12.8797C4.60084 15.7587 5.40668 18.7892 7.26198 21.0242C9.04233 23.2024 11.7597 24.5662 14.5708 24.6609C17.1944 24.8124 19.9305 23.9979 21.8421 22.1417C23.3413 20.8348 24.0347 18.846 24.2596 16.9141C21.1487 16.9141 18.0378 16.933 14.9268 16.9141V13.0123H28.0264C28.7011 17.1982 27.7266 21.9144 24.5782 24.9071C22.4792 27.0285 19.5745 28.2785 16.6135 28.5248C13.7462 28.8089 10.7852 28.2596 8.23649 26.858C5.18179 25.2101 2.74553 22.4258 1.54614 19.1491C0.421712 16.1375 0.402971 12.7282 1.45244 9.69767C2.4082 6.93231 4.24477 4.48896 6.60607 2.78429C8.87366 1.09856 11.6285 0.170467 14.4396 0Z" fill="#4285F4"/>
<path d="M89.5893 0.984985H93.5998V28.0323C92.2692 28.0323 90.9199 28.0513 89.5893 28.0134C89.6081 19.0165 89.5893 10.0008 89.5893 0.984985Z" fill="#34A853"/>
<path d="M36.9464 10.3607C39.4201 9.88719 42.1 10.4175 44.1427 11.9138C45.998 13.2397 47.2911 15.3231 47.6847 17.596C48.1907 20.2288 47.5535 23.1077 45.8668 25.1912C44.049 27.5209 41.0693 28.771 38.1645 28.5816C35.5034 28.43 32.9172 27.0853 31.343 24.8881C29.5626 22.4638 29.1316 19.1302 30.1061 16.2891C31.0806 13.2397 33.8355 10.91 36.9464 10.3607ZM37.5086 13.9594C36.4966 14.2246 35.5596 14.8117 34.8849 15.6451C33.0671 17.8422 33.1795 21.422 35.1848 23.4676C36.3279 24.6419 38.0521 25.1912 39.645 24.8692C41.1255 24.604 42.4186 23.6002 43.1307 22.2743C44.3676 20.0204 44.0115 16.9142 42.1188 15.1527C40.9006 14.0162 39.1203 13.5427 37.5086 13.9594Z" fill="#EA4335"/>
<path d="M56.8098 10.3606C59.6396 9.81129 62.7318 10.6068 64.8494 12.6145C68.2977 15.7398 68.6725 21.5925 65.7302 25.1912C63.9499 27.4641 61.0639 28.7142 58.2153 28.5816C55.4979 28.5058 52.818 27.1421 51.2064 24.8882C49.3885 22.4069 48.995 18.9976 50.0257 16.0996C51.0564 13.1449 53.7551 10.8909 56.8098 10.3606ZM57.372 13.9593C56.36 14.2245 55.423 14.8117 54.7483 15.6261C52.9492 17.7854 53.0242 21.3083 54.9545 23.3729C56.0976 24.604 57.878 25.2102 59.5271 24.8692C60.9889 24.5851 62.3007 23.6002 63.0129 22.2743C64.231 20.0014 63.8749 16.8951 61.9634 15.1337C60.7453 13.9972 58.9649 13.5426 57.372 13.9593Z" fill="#FBBC05"/>
<path d="M73.6595 11.4592C75.8147 10.0955 78.682 9.71669 81.0058 10.891C81.7367 11.213 82.3364 11.7623 82.9173 12.3116C82.9361 11.8002 82.9173 11.2698 82.9361 10.7395C84.1917 10.7584 85.4473 10.7395 86.7217 10.7584V27.4641C86.7029 29.9833 86.0658 32.6539 84.2667 34.4911C82.2989 36.5178 79.2817 37.1428 76.5643 36.7261C73.6595 36.2905 71.1296 34.1502 70.0051 31.4417C71.1296 30.8924 72.3102 30.4568 73.4721 29.9454C74.1281 31.4985 75.4586 32.8244 77.1265 33.1274C78.7944 33.4305 80.7247 33.0138 81.8117 31.6122C82.9736 30.1727 82.9736 28.2028 82.9173 26.4413C82.0553 27.2937 81.062 28.0513 79.8626 28.3354C77.2577 29.0741 74.3904 28.1649 72.3852 26.3845C70.3612 24.6041 69.1618 21.8577 69.2743 19.1302C69.3305 16.0429 71.0546 13.0692 73.6595 11.4592ZM77.5388 13.8836C76.3957 14.0731 75.3274 14.717 74.5966 15.6073C72.835 17.7286 72.835 21.119 74.6153 23.2025C75.6273 24.4336 77.2577 25.1155 78.8319 24.945C80.3124 24.7935 81.6805 23.8465 82.4114 22.5396C83.6482 20.3235 83.4421 17.3119 81.7742 15.38C80.7435 14.1867 79.0943 13.5995 77.5388 13.8836Z" fill="#4285F4"/>
<path d="M98.413 12.4252C100.662 10.3038 104.129 9.58409 107.015 10.7016C109.751 11.7433 111.494 14.3761 112.375 17.0846C108.308 18.7893 104.26 20.475 100.193 22.1797C100.756 23.2593 101.618 24.2442 102.78 24.642C104.41 25.2291 106.359 25.0208 107.727 23.9222C108.271 23.5055 108.702 22.9562 109.114 22.4259C110.145 23.1267 111.175 23.8086 112.206 24.5094C110.744 26.7255 108.289 28.2786 105.647 28.5248C102.723 28.8847 99.6124 27.7483 97.7196 25.4375C94.6087 21.8009 94.9085 15.7019 98.413 12.4252ZM100.418 15.9292C99.7811 16.8573 99.5187 17.9938 99.5374 19.1113C102.255 17.9748 104.972 16.8384 107.69 15.683C107.24 14.6223 106.153 13.9783 105.047 13.8079C103.267 13.4859 101.411 14.4519 100.418 15.9292Z" fill="#EA4335"/>
</svg>
