<svg width="252" height="330" viewBox="0 0 252 330" fill="none" xmlns="http://www.w3.org/2000/svg">
<g clip-path="url(#clip0_1351_23028)">
<path opacity="0.23" d="M251.738 326.589C251.738 310.06 248.482 293.692 242.157 278.421C235.831 263.15 226.56 249.274 214.872 237.586C203.184 225.898 189.308 216.627 174.037 210.301C158.766 203.976 142.398 200.72 125.869 200.72C109.34 200.72 92.9721 203.976 77.701 210.301C62.4299 216.627 48.5542 225.898 36.8662 237.586C25.1782 249.274 15.9067 263.15 9.5812 278.421C3.25569 293.692 -1.44504e-06 310.06 0 326.589L125.869 326.589H251.738Z" fill="white"/>
<rect opacity="0.1" x="225.959" y="0.541992" width="200.178" height="200.181" transform="rotate(90 225.959 0.541992)" fill="white"/>
</g>
<defs>
<clipPath id="clip0_1351_23028">
<rect width="252" height="330" fill="white"/>
</clipPath>
</defs>
</svg>
