<svg width="360" height="361" viewBox="0 0 360 361" fill="none" xmlns="http://www.w3.org/2000/svg">
<g opacity="0.6">
<rect opacity="0.2" width="180.039" height="180.041" transform="matrix(4.37114e-08 1 1 -4.37114e-08 0.162598 180.472)" fill="white"/>
<path opacity="0.2" d="M1.00635 180.472L96.4728 273.326L180.204 359.67L180.204 180.472L1.00635 180.472Z" fill="white"/>
<path opacity="0.14" d="M180.204 270.211C180.204 281.959 182.518 293.592 187.013 304.445C191.509 315.299 198.098 325.161 206.405 333.468C214.712 341.775 224.574 348.364 235.428 352.86C246.282 357.356 257.914 359.67 269.662 359.67C281.41 359.67 293.043 357.356 303.897 352.86C314.75 348.364 324.612 341.775 332.919 333.468C341.226 325.161 347.816 315.299 352.311 304.445C356.807 293.592 359.121 281.959 359.121 270.211L269.662 270.211H180.204Z" fill="white"/>
<path opacity="0.07" d="M180.204 180.472L84.2875 87.1814L0.162547 0.431362L0.162555 180.472L180.204 180.472Z" fill="white"/>
<path opacity="0.28" d="M359.121 181.14C359.121 192.888 356.807 204.521 352.311 215.374C347.815 226.228 341.226 236.09 332.919 244.397C324.612 252.704 314.75 259.293 303.897 263.789C293.043 268.285 281.41 270.599 269.662 270.599C257.914 270.599 246.281 268.285 235.428 263.789C224.574 259.293 214.712 252.704 206.405 244.397C198.098 236.09 191.509 226.228 187.013 215.374C182.517 204.521 180.204 192.888 180.204 181.14L269.662 181.14L359.121 181.14Z" fill="white"/>
</g>
</svg>
