<svg width="266" height="266" viewBox="0 0 266 266" fill="none" xmlns="http://www.w3.org/2000/svg">
<path opacity="0.14" d="M266 132.667C266 150.13 262.56 167.422 255.877 183.556C249.195 199.69 239.399 214.35 227.051 226.698C214.702 239.047 200.043 248.842 183.909 255.525C167.775 262.208 150.482 265.647 133.019 265.647C115.556 265.647 98.2636 262.208 82.1297 255.525C65.9957 248.842 51.336 239.047 38.9876 226.698C26.6392 214.35 16.8439 199.69 10.161 183.556C3.47809 167.422 0.038437 150.13 0.0384425 132.667L133.019 132.667L266 132.667Z" fill="white"/>
<path opacity="0.28" d="M0.0383243 0.261836C0.0383248 17.7251 3.47798 35.0174 10.1609 51.1514C16.8438 67.2854 26.6391 81.945 38.9875 94.2935C51.3359 106.642 65.9956 116.437 82.1296 123.12C98.2636 129.803 115.556 133.243 133.019 133.243C150.482 133.243 167.775 129.803 183.909 123.12C200.043 116.437 214.702 106.642 227.051 94.2934C239.399 81.945 249.194 67.2853 255.877 51.1513C262.56 35.0174 266 17.7251 266 0.261788L133.019 0.26183L0.0383243 0.261836Z" fill="white"/>
</svg>
