<svg width="279" height="280" viewBox="0 0 279 280" fill="none" xmlns="http://www.w3.org/2000/svg">
<g opacity="0.8">
<rect opacity="0.2" x="269.826" y="99.7143" width="180.039" height="180.041" transform="rotate(90 269.826 99.7143)" fill="white"/>
<path opacity="0.2" d="M268.982 99.7143L173.516 192.568L89.7852 278.911L89.7852 99.7143L268.982 99.7143Z" fill="white"/>
<path opacity="0.14" d="M0.32652 278.632C12.0744 278.632 23.7072 276.318 34.5609 271.822C45.4145 267.326 55.2763 260.737 63.5833 252.43C71.8903 244.123 78.4798 234.261 82.9755 223.407C87.4712 212.554 89.7852 200.921 89.7852 189.173C89.7852 177.425 87.4712 165.792 82.9755 154.939C78.4798 144.085 71.8903 134.223 63.5833 125.916C55.2763 117.609 45.4145 111.02 34.5608 106.524C23.7072 102.028 12.0744 99.7143 0.326495 99.7143L0.32652 189.173L0.32652 278.632Z" fill="white"/>
<path opacity="0.28" d="M82.6265 0.74124C82.6265 13.5768 85.1546 26.2867 90.0666 38.1452C94.9785 50.0038 102.178 60.7787 111.254 69.8548C120.33 78.931 131.105 86.1305 142.964 91.0425C154.822 95.9545 167.532 98.4826 180.368 98.4826C193.203 98.4826 205.913 95.9544 217.772 91.0425C229.63 86.1305 240.405 78.9309 249.481 69.8548C258.558 60.7787 265.757 50.0037 270.669 38.1452C275.581 26.2867 278.109 13.5768 278.109 0.741205L180.368 0.741236L82.6265 0.74124Z" fill="white"/>
</g>
</svg>
