<svg width="143" height="38" viewBox="0 0 143 38" fill="none" xmlns="http://www.w3.org/2000/svg">
<path d="M15.6376 0.38376C13.811 0.590649 11.0712 1.45003 9.51227 2.30942C5.32374 4.5852 2.4894 8.13414 1.07223 12.8607C0.788796 13.7838 0.458123 16.2983 0.473869 17.476C0.473869 18.5104 0.788796 21.0408 0.977752 21.6456C1.07223 21.932 1.27693 22.6164 1.45014 23.1415C1.73358 24.0327 3.10351 26.8337 3.3397 27.0247C3.38694 27.0724 3.63888 27.3907 3.87508 27.7567C4.45769 28.632 5.98509 30.1917 7.13457 31.0829C8.01637 31.7672 10.5043 33.2154 10.8192 33.2313C10.8979 33.2313 10.9137 32.6266 10.8665 31.8309C10.7562 30.0644 11.0869 27.6613 11.7955 25.2104C11.9215 24.7966 12.0159 24.2556 12.0159 24.0168C12.0159 23.7781 12.0789 23.5235 12.1577 23.4439C12.2364 23.3484 12.3781 22.8869 12.4568 22.4095C12.5513 21.932 12.7088 21.2 12.819 20.7862C12.9765 20.1655 12.9607 19.9268 12.7403 19.2584C12.4253 18.2399 12.4096 16.5847 12.7245 15.789C13.4646 13.8952 14.2834 13.179 15.6691 13.179C17.3382 13.179 18.1413 14.4522 17.8263 16.5847C17.6846 17.5555 17.291 19.0833 17.039 19.5608C16.976 19.704 16.8658 20.1019 16.8186 20.4361C16.7556 20.7862 16.6296 21.2795 16.5509 21.5501C16.3304 22.1708 16.7556 23.3803 17.3225 23.8418C17.8578 24.2715 18.9758 24.3988 19.9993 24.1601C20.7237 24.0009 21.0228 23.8099 21.7787 23.0779C22.6762 22.1867 23.3533 21.1522 23.3533 20.6589C23.3533 20.5156 23.432 20.3247 23.5265 20.2292C23.9674 19.7836 24.2036 16.3142 23.8729 14.8501C23.5108 13.2427 22.3928 11.6672 20.9441 10.7441C19.4954 9.80516 16.5036 9.53461 14.6613 10.1712C13.3701 10.6168 12.2206 11.3648 11.4806 12.2401C10.8192 13.0199 10.1264 14.2931 10.1264 14.7387C10.1264 14.8978 10.0476 15.1047 9.95317 15.2002C9.85869 15.2957 9.74846 15.9004 9.70122 16.5529C9.62249 17.5237 9.68548 17.9693 9.96891 18.9242C10.1579 19.5767 10.5043 20.3406 10.709 20.627C11.1341 21.2 11.1341 21.4228 10.7405 22.9506C10.6303 23.3643 10.4413 23.7463 10.3311 23.794C9.33906 24.176 7.32353 21.7729 6.64643 19.3857C6.39449 18.4786 6.37875 15.2479 6.63069 14.2931C6.74091 13.8952 6.92987 13.3541 7.05584 13.0676C7.18181 12.7971 7.29203 12.5265 7.29203 12.4629C7.29203 12.3992 7.60696 11.8581 8.00062 11.2693C10.0476 8.15005 13.3701 6.49494 17.5744 6.49494C18.5349 6.49494 19.5269 6.5586 19.7946 6.63817C21.9676 7.32249 22.5502 7.5453 23.4005 8.05456C25.0539 9.05718 26.2506 10.4258 27.4473 12.7175C27.5261 12.8607 27.6363 13.2427 27.6835 13.561C27.7465 13.8793 27.8568 14.1817 27.9355 14.2294C28.0142 14.2771 28.0772 15.3116 28.0772 16.537C28.0772 18.7491 27.9197 19.6403 27.2584 21.4546C26.5183 23.4439 24.613 25.6401 22.8809 26.4995C21.8889 26.9769 20.0308 27.5021 19.2907 27.5021C18.2987 27.5021 16.3462 26.6746 15.8108 26.0062C15.5589 25.7038 15.3227 25.8152 15.3227 26.2449C15.3227 26.404 15.2597 26.6746 15.1652 26.8337C15.0865 26.9769 14.9448 27.4225 14.866 27.8204C14.4094 29.9211 13.7638 31.624 12.7718 33.2154C12.4726 33.7088 12.7245 33.9952 13.5433 34.1066C13.9527 34.1703 14.5039 34.2817 14.7558 34.3613C15.3857 34.5682 18.8026 34.5363 19.9521 34.3294C20.9913 34.1385 22.6762 33.661 23.432 33.3427C28.1874 31.3693 31.7933 27.3589 33.3522 22.2503C34.1868 19.5289 34.234 16.3619 33.4782 13.179C33.2263 12.1446 33.1475 11.9059 32.4704 10.3144C31.4942 7.9909 29.2897 5.26952 27.0537 3.59849C25.1326 2.16619 23.2431 1.33863 20.2985 0.622478C19.4797 0.431504 16.5666 0.272359 15.6376 0.38376ZM57.6331 6.1289C57.019 6.22439 56.0427 7.24292 55.7908 8.03865C55.5231 8.91395 55.7908 9.8529 56.5466 10.585C58.2157 12.2242 61.113 10.6805 60.7509 8.32511C60.5304 6.82914 59.1762 5.87427 57.6331 6.1289ZM40.4696 7.06786C40.3279 7.22701 40.3279 26.4199 40.4853 26.6427C40.5641 26.77 41.2411 26.8178 42.5638 26.8019L44.5321 26.786L44.6109 23.5553C44.6738 20.9294 44.7368 20.2928 44.9258 20.1814C45.0518 20.1019 46.1225 20.0223 47.3035 20.0223C49.8859 20.0223 50.9724 19.8313 52.1534 19.1947C53.6965 18.3513 54.594 17.1418 55.0822 15.2161C55.3814 14.0066 55.3814 13.1313 55.0664 11.89C54.783 10.7759 54.657 10.5054 53.9799 9.59827C53.1454 8.46834 52.2951 7.84767 50.9094 7.35432C50.1378 7.09969 49.4922 7.05195 45.3194 7.0042C42.7213 6.97238 40.5326 7.0042 40.4696 7.06786ZM49.1143 11.0306C50.1693 11.3648 50.6889 11.8422 50.9251 12.7016C51.2243 13.8315 51.0039 14.8819 50.3425 15.5185C49.6182 16.2028 48.9726 16.3619 46.8626 16.3619C45.4769 16.3619 45.0518 16.3142 44.8628 16.1073C44.6581 15.9163 44.6109 15.4548 44.6109 13.6406C44.6109 10.7759 44.5951 10.7919 46.7839 10.7919C47.7286 10.7919 48.6419 10.8873 49.1143 11.0306ZM76.7334 10.0916C76.7334 11.1897 76.6547 12.2242 76.5759 12.3992C76.4657 12.6061 76.2453 12.7016 75.8673 12.7016C75.5839 12.7016 75.3162 12.7653 75.2847 12.8607C75.269 12.9403 75.269 13.4973 75.3162 14.0862C75.395 15.1365 75.4107 15.1524 75.8831 15.2638C76.1508 15.3116 76.45 15.4071 76.5444 15.4707C76.6861 15.5503 76.7334 16.8076 76.7334 19.9905C76.7334 24.2715 76.7491 24.4306 77.0956 25.0672C77.8199 26.4199 78.9536 26.8974 81.2526 26.8337L82.7957 26.786L82.843 25.2423L82.8902 23.6826H82.4966C81.8982 23.6826 81.0164 23.2052 80.9219 22.8232C80.8747 22.6323 80.8274 20.9453 80.8274 19.0515C80.8274 16.4415 80.8747 15.5662 81.0321 15.4389C81.1424 15.3434 81.5833 15.2479 82.0084 15.2161L82.7957 15.1684V12.7812L81.9297 12.7334C81.4573 12.7016 81.0164 12.5902 80.9534 12.4947C80.8904 12.3833 80.8274 11.3489 80.8274 10.1871V8.08639H76.7334V10.0916ZM135.263 8.18188C135.2 8.24554 135.152 9.24815 135.152 10.4099C135.152 12.6698 135.137 12.7016 134.271 12.7016C133.877 12.7016 133.877 12.7175 133.924 13.927C133.971 15.1365 133.987 15.1684 134.396 15.2161C134.617 15.2479 134.885 15.3593 134.963 15.4548C135.058 15.5662 135.152 17.4919 135.2 19.9427C135.247 22.2981 135.326 24.4465 135.389 24.7012C135.577 25.4014 136.554 26.2926 137.483 26.595C138.522 26.9451 141.167 26.9769 141.435 26.6427C141.561 26.4995 141.608 25.9266 141.577 25.099L141.53 23.7622L140.978 23.6667C140.38 23.5712 139.703 23.2529 139.53 22.9824C139.467 22.8869 139.404 21.1522 139.404 19.1311C139.404 14.9774 139.309 15.2479 140.679 15.2479C141.577 15.2479 141.656 15.0888 141.577 13.6406L141.53 12.7812L140.506 12.7016L139.483 12.622L139.404 10.394L139.325 8.16596L137.341 8.11822C136.255 8.10231 135.326 8.13414 135.263 8.18188ZM68.939 12.3197C68.1674 12.5265 67.2698 13.0517 66.6715 13.6724C65.9472 14.4363 65.7582 14.3885 65.6795 13.4178L65.6322 12.7812H61.6956V26.786L63.6797 26.8178C65.6322 26.8655 65.6795 26.8496 65.7739 26.4995C65.8212 26.3085 65.8684 24.2874 65.8684 21.9957C65.8684 17.46 65.8842 17.3327 66.8132 16.4415C67.2226 16.0437 67.4431 15.9641 68.3248 15.9163L69.3484 15.8527L69.9625 16.5052C70.6868 17.2691 70.6081 16.537 70.6711 23.1256C70.6868 24.8762 70.7025 26.4199 70.7183 26.5791C70.7498 26.8019 71.0017 26.8337 72.7653 26.8019L74.7651 26.786V15.614L74.3085 14.7068C73.5211 13.1313 72.3087 12.3833 70.4506 12.2878C69.7893 12.2719 69.1122 12.2719 68.939 12.3197ZM88.6219 12.3197C86.9213 12.7812 86.1025 13.2427 85.0475 14.2931C83.6303 15.7413 82.9847 17.4282 82.9847 19.704C83.0004 23.6985 85.4726 26.6586 89.1258 27.0088C92.2435 27.3111 94.6527 26.3881 96.1959 24.3033C96.4163 24.0009 96.8887 23.0301 96.8887 22.8551C96.8887 22.7914 95.9754 22.7278 94.8732 22.7278H92.8577L92.3853 23.2211C91.8341 23.794 91.0626 24.1601 90.354 24.1601C89.6454 24.1601 88.5589 23.6508 88.055 23.1097C87.6771 22.68 87.126 21.4387 87.126 21.009C87.126 20.8658 88.2755 20.818 91.9758 20.818C94.637 20.818 96.8887 20.7544 96.9989 20.6907C97.2351 20.5316 97.0147 18.0011 96.6683 17.0781C95.9597 15.1524 94.6212 13.5292 93.2671 12.9562C92.8734 12.7971 92.4167 12.5902 92.2593 12.5106C91.9286 12.3356 89.1258 12.1923 88.6219 12.3197ZM91.6924 15.8049C92.3065 16.2346 92.8419 17.2532 92.7632 17.8261C92.7159 18.1921 92.6844 18.1921 90.0233 18.2399C86.9528 18.2876 86.937 18.2717 87.4252 17.1258C87.7716 16.3301 88.4644 15.614 89.11 15.4071C89.8501 15.1684 91.0468 15.3593 91.6924 15.8049ZM111.926 12.3197C110.1 12.813 108.824 13.6246 107.832 14.8819C107.439 15.3912 107.124 15.8686 107.124 15.9641C107.124 16.0437 107.014 16.3301 106.872 16.6007C106.73 16.8553 106.525 17.651 106.415 18.3672C105.864 21.7729 107.376 24.9558 110.21 26.3881L111.297 26.9451H113.58C115.942 26.9451 116.146 26.8974 117.595 26.1176C118.65 25.5446 120.382 23.3166 120.115 22.871C120.052 22.7914 119.154 22.7278 118.099 22.7278H116.162L115.769 23.1893C114.194 24.9876 111.249 24.0646 110.62 21.566C110.525 21.2318 110.525 20.9453 110.604 20.8817C110.682 20.8339 112.934 20.8021 115.627 20.818C119.469 20.818 120.508 20.7862 120.524 20.627C120.666 18.6377 119.721 15.6935 118.54 14.4204C117.879 13.7042 116.729 12.9085 116.162 12.7653C115.91 12.7016 115.627 12.5902 115.517 12.5106C115.296 12.3356 112.415 12.1923 111.926 12.3197ZM114.383 15.423C115.091 15.6776 115.91 16.5688 116.036 17.2532C116.225 18.2876 116.241 18.2876 113.312 18.2399C110.683 18.1921 110.667 18.1921 110.62 17.8261C110.557 17.3805 111.108 16.2824 111.58 15.8686C112.257 15.2957 113.438 15.1047 114.383 15.423ZM125.626 12.3197C122.398 13.0995 121.233 14.2612 121.217 16.6802C121.217 19.2902 122.508 20.3883 126.334 21.0726C128.964 21.5342 129.72 21.9479 129.688 22.9506C129.673 23.6667 129.184 24.1282 128.208 24.3351C126.98 24.6057 126.019 24.3033 125.248 23.428L124.634 22.7278H122.728C121.185 22.7278 120.823 22.7755 120.823 22.9506C120.823 23.4121 121.453 24.6216 121.973 25.2263C122.461 25.7515 122.839 26.0062 124.319 26.7223C124.461 26.8019 125.232 26.9292 126.004 27.0247C127.437 27.1997 129.925 27.0406 130.554 26.7223C130.696 26.6586 131.106 26.4518 131.452 26.2926C132.349 25.8629 133.2 24.8921 133.515 23.9691C133.861 22.9187 133.767 21.4546 133.279 20.4361C132.696 19.2425 131.153 18.3831 128.854 17.9693C125.893 17.4441 125.846 17.4282 125.374 16.9667C124.807 16.3779 124.807 16.171 125.374 15.5344C125.83 15.0251 125.862 15.0092 127.122 15.0092C128.381 15.0092 128.413 15.0251 128.87 15.5344C129.121 15.8209 129.326 16.1551 129.326 16.2824C129.326 16.4733 129.657 16.5211 131.294 16.5211C133.467 16.5211 133.404 16.5688 133.027 15.4389C132.334 13.4337 130.554 12.4151 127.594 12.3037C126.681 12.2719 125.799 12.2719 125.626 12.3197ZM104.683 12.6539C103.99 12.8926 103.03 13.6883 102.731 14.2612C102.431 14.8342 102.164 14.5954 102.085 13.6406L102.006 12.7812H98.0697L98.0224 19.4653C98.0067 23.1415 98.0224 26.3085 98.0697 26.5154C98.1484 26.8655 98.1957 26.8655 100.085 26.8337C101.172 26.8178 102.054 26.7223 102.116 26.6268C102.179 26.5472 102.242 24.8603 102.242 22.8869C102.242 19.7677 102.274 19.2106 102.542 18.5104C103.093 17.0622 104.274 16.2028 105.754 16.2028C106.163 16.2028 106.337 16.1232 106.384 15.9163C106.494 15.4548 106.51 13.3064 106.415 12.8289C106.321 12.447 106.242 12.3833 105.817 12.3992C105.533 12.4151 105.03 12.5265 104.683 12.6539ZM56.1844 12.8926C56.1372 13.004 56.1214 16.1391 56.1372 19.8631L56.1844 26.6268L58.0582 26.7064C59.192 26.7541 60.0108 26.7223 60.1368 26.6268C60.31 26.4995 60.3572 25.1468 60.3572 19.7358C60.3729 16.0437 60.3257 12.9403 60.2785 12.8607C60.121 12.622 56.2631 12.6539 56.1844 12.8926Z" fill="#D71818"/>
</svg>
