<svg width="126" height="38" viewBox="0 0 126 38" fill="none" xmlns="http://www.w3.org/2000/svg">
<path d="M21.0852 32.5195L12.8359 32.367C10.1649 32.3139 7.48731 32.42 4.8688 31.8695C0.885256 31.0471 0.603061 27.0143 0.30774 23.6316C-0.0991455 18.8759 0.0583587 14.034 0.826192 9.31815C1.25933 6.67169 2.96562 5.09309 5.60382 4.92064C14.5094 4.29716 23.474 4.37012 32.3598 4.66196C33.2983 4.68849 34.2433 4.83441 35.1687 5.00023C39.7363 5.80943 39.8479 10.3794 40.1432 14.2264C40.4385 18.1132 40.3138 22.0199 39.7494 25.8801C39.2966 29.0771 38.4303 31.7568 34.7749 32.0154C30.1942 32.3537 25.7184 32.6256 21.1245 32.5394C21.1245 32.5195 21.0983 32.5195 21.0852 32.5195ZM16.2354 24.4276C19.6873 22.4245 23.0737 20.4545 26.5059 18.4647C23.0474 16.4616 19.6676 14.4917 16.2354 12.5019V24.4276Z" fill="#FF0000"/>
<path d="M106.311 28.8849C106.153 29.5349 106.015 30.0456 105.878 30.5895H102.649V5.41797H106.416V14.7039C106.613 14.4519 106.711 14.3457 106.796 14.233C107.44 13.3376 108.273 12.7539 109.349 12.5284C111.062 12.1901 112.526 12.9528 113.044 14.6177C113.379 15.6524 113.595 16.7601 113.622 17.8412C113.674 20.6204 113.635 23.3929 113.536 26.1721C113.497 27.0211 113.241 27.89 112.919 28.6859C111.863 31.3125 108.411 31.7105 106.698 29.4354C106.593 29.2961 106.495 29.1436 106.311 28.8849ZM106.495 21.9602V26.5634C106.495 27.3129 106.888 27.7706 107.63 27.943C108.358 28.1155 108.949 27.8303 109.244 27.1471C109.369 26.8619 109.494 26.5634 109.5 26.2649C109.572 23.4526 109.638 20.6403 109.658 17.8213C109.658 17.2973 109.533 16.7535 109.376 16.2427C109.08 15.3208 108.266 15.0488 107.466 15.5861C106.862 15.9973 106.495 16.581 106.495 17.357V21.9602ZM96.2568 12.8865H100.201V30.6028H97.123C97.0115 29.9329 96.8999 29.2431 96.7687 28.4338C96.5586 28.7456 96.434 28.9446 96.3027 29.1436C95.2789 30.6359 93.8286 31.1467 92.1157 30.8747C90.6522 30.6359 89.7729 29.4951 89.576 27.6246C89.5169 27.0675 89.4907 26.5037 89.4907 25.9465C89.4775 21.801 89.4907 17.6423 89.4907 13.4967V12.8733H93.4808V13.5962C93.4808 17.6025 93.4676 21.602 93.4939 25.6083C93.4939 26.1787 93.5529 26.769 93.6514 27.3394C93.763 27.9231 94.183 28.1354 94.7473 28.0956C95.6596 28.0226 96.2896 27.3394 96.2896 26.4241V13.6692C96.2568 13.4105 96.2568 13.1717 96.2568 12.8865ZM69.1005 12.8733H73.0643V13.6228C73.0643 17.6091 73.0512 21.5888 73.0774 25.5618C73.0774 26.1323 73.1299 26.7226 73.2481 27.2797C73.399 27.9364 73.7796 28.1486 74.4293 28.0624C75.3284 27.9364 75.8731 27.3063 75.8797 26.3843V13.6957V12.8998H79.8238V30.6028H76.7591C76.6475 29.9461 76.5359 29.2696 76.3916 28.4139C76.1947 28.7124 76.0831 28.8849 75.9716 29.064C74.9478 30.5829 73.5106 31.14 71.7583 30.8681C70.3539 30.6558 69.4942 29.6079 69.2317 27.89C69.1595 27.3527 69.107 26.8221 69.107 26.2848C69.0939 21.9801 69.0939 17.6555 69.0939 13.3508L69.1005 12.8733ZM67.066 22.3317C67.0529 22.9286 67.0135 23.5256 66.9807 24.1225C66.8298 25.9134 66.7576 28.4537 65.3269 29.7604C64.4147 30.5829 63.2597 30.8814 62.0653 30.9212C61.5337 30.9344 60.9956 30.9344 60.464 30.8615C57.9505 30.4768 56.7823 29.3558 56.3623 26.5634C55.8832 23.3398 55.8439 20.0632 56.4148 16.8397C57.0055 13.5034 59.0399 12.3227 62.2031 12.5416C65.1563 12.7539 66.4754 14.7105 66.8232 17.4963C67.0135 19.0948 67.1054 20.7132 67.066 22.3317ZM63.0497 21.7214C63.0497 20.5872 63.0759 19.4464 63.0365 18.3122C63.0103 17.6555 62.925 16.9922 62.7872 16.3422C62.6297 15.5927 62.1571 15.2345 61.5665 15.2478C60.989 15.2611 60.5821 15.6192 60.3721 16.3157C60.2999 16.5744 60.2212 16.8397 60.2212 17.0984C60.2212 18.876 60.208 20.6602 60.1949 22.4378C60.1818 24.096 59.9718 25.8338 60.4902 27.419C60.6477 27.9032 61.0546 28.1685 61.5862 28.1685C62.1046 28.1685 62.4459 27.9099 62.6362 27.4456C62.7872 27.0874 62.9184 26.6961 62.9184 26.3113C62.9644 24.7858 63.0497 23.2536 63.0497 21.7214ZM50.574 18.3851C50.9219 16.6672 51.25 14.9891 51.6109 13.3044C52.0638 11.162 52.5691 9.01959 53.0154 6.87056C53.1269 6.34656 53.3369 6.22054 53.8291 6.23381C54.8857 6.2736 55.962 6.24707 57.0908 6.24707C56.7233 7.61343 56.3623 8.91346 56.0079 10.1936C54.8857 14.2131 53.7635 18.2458 52.6544 22.2786C52.5691 22.5903 52.5297 22.9286 52.5297 23.2603C52.5166 25.4623 52.5297 27.6578 52.5297 29.8599V30.5762H48.6774C48.6643 30.3773 48.6381 30.1783 48.6381 29.9793C48.6381 28.7323 48.5396 27.4787 48.6512 26.245C48.9334 23.2801 48.0015 20.5541 47.2468 17.7948C46.2492 14.1468 45.2386 10.4854 44.2411 6.83739C44.1886 6.66494 44.1689 6.47922 44.1164 6.26697H48.0474C48.8743 10.2931 49.7078 14.3192 50.574 18.3851ZM125.946 23.0082H119.305C119.377 24.3547 119.403 25.6348 119.541 26.9017C119.64 27.7838 120.119 28.1619 120.873 28.1685C121.661 28.1818 122.12 27.7838 122.304 26.9083C122.363 26.6231 122.402 26.3379 122.429 26.046C122.455 25.7874 122.468 25.5088 122.488 25.1373C123.61 25.197 124.706 25.2634 125.789 25.3098C126.419 27.2001 125.283 29.6278 123.374 30.3773C121.871 30.9742 120.329 30.9742 118.793 30.5166C117.658 30.1783 116.811 29.4487 116.43 28.3277C116.076 27.2797 115.741 26.1853 115.669 25.0909C115.472 22.3913 115.4 19.6653 115.807 16.9591C115.879 16.508 116.004 16.0769 116.142 15.6391C116.693 13.835 117.894 12.7273 119.751 12.5416C120.762 12.4421 121.805 12.4819 122.803 12.6544C124.417 12.9396 125.277 14.1136 125.651 15.6524C125.822 16.3754 125.946 17.1183 125.973 17.8545C125.979 19.5459 125.946 21.224 125.946 23.0082ZM122.173 20.6801C122.173 19.3469 122.186 18.0933 122.16 16.833C122.16 16.5346 122.048 16.2228 121.936 15.9376C121.713 15.3805 121.247 15.2279 120.69 15.2279C120.132 15.2279 119.777 15.5131 119.64 16.0238C119.22 17.556 119.357 19.1214 119.37 20.6933C120.375 20.6801 121.287 20.6801 122.173 20.6801Z" fill="#282828"/>
<path d="M82.8685 9.49738H78.9638V6.30035H90.619V9.47748H86.7405V30.5765H82.8751L82.8685 9.49738Z" fill="#282828"/>
</svg>
